PathFileType	4	(X/Y/Z)	C:\Users\WrightLab\Desktop\Jo\P2_Trial8.trc
DataRate	CameraRate	NumFrames	NumMarkers	Units	OrigDataRate	OrigDataStartFrame	OrigNumFrames
100.00	100.00	       19	19	mm	100.00	467	       932
Frame#	Time	Headset_Front			Headset_Back			Headset_Left			Headset_Right			Left_Shoulder			Right_Shoulder			Sternum			C7			Left Elbow			Right Elbow			Left Wrist			Right Wrist			Left ASIS			Right ASIS			S2			Left Knee			Right Knee			Left Ankle			Right Ankle			
		X1	Y1	Z1	X2	Y2	Z2	X3	Y3	Z3	X4	Y4	Z4	X5	Y5	Z5	X6	Y6	Z6	X7	Y7	Z7	X8	Y8	Z8	X9	Y9	Z9	X10	Y10	Z10	X11	Y11	Z11	X12	Y12	Z12	X13	Y13	Z13	X14	Y14	Z14	X15	Y15	Z15	X16	Y16	Z16	X17	Y17	Z17	X18	Y18	Z18	X19	Y19	Z19	

467	4.660	-255.77867	1442.93713	345.43134	-254.01497	1703.05249	511.78418	-358.45840	1569.66406	478.25958	-153.49112	1549.97485	372.86713	-310.71997	1469.28210	673.97797	-70.93982	1468.19714	450.87051	-225.69891	1344.85095	520.16595	-107.93496	1469.54761	635.22162	-358.91827	1202.08899	801.20172	47.75832	1162.22986	386.32758	-479.35840	1254.70117	720.61243	-37.01172	1088.49365	206.57104	-262.09076	1067.62671	536.69983	-163.73291	1054.60999	454.81784	-58.60703	981.86755	708.55029	-268.07916	467.65802	727.50696	-106.55976	586.51337	425.82178	-259.86606	111.57530	713.38110	-54.41213	184.37469	483.40323	
468	4.670	-258.26678	1443.07446	342.09915	-257.53723	1702.87134	507.94955	-361.88196	1569.86243	474.30521	-156.36673	1549.77393	369.86652	-314.72281	1469.51184	669.85272	-74.58749	1467.77515	448.07001	-229.58641	1345.13647	516.37067	-111.98019	1469.38184	632.32172	-365.42322	1201.93896	795.94720	44.47657	1161.64160	384.80109	-484.98026	1254.23047	713.68427	-40.10937	1084.82947	204.73523	-266.72348	1067.40930	533.31659	-167.66483	1054.09241	451.40320	-63.29671	981.87360	705.55011	-270.21356	467.92133	724.64093	-111.83751	587.87152	420.62369	-260.59924	111.54409	713.13568	-72.52351	179.03271	472.51044	
469	4.680	-260.98474	1442.98914	338.24979	-260.85120	1703.23682	504.53046	-365.25525	1569.72559	470.13950	-158.94894	1549.82629	367.16025	-319.79993	1469.66504	665.93799	-77.55684	1466.82239	446.13553	-233.73262	1344.61243	513.18555	-117.00461	1469.30762	629.48969	-371.52313	1201.47070	790.75562	40.66985	1161.31323	382.90375	-491.36670	1254.32019	709.19440	-42.80168	1081.08264	203.59622	-270.43588	1067.16150	528.91498	-171.39908	1054.59119	448.35223	-67.78145	981.97827	702.73389	-272.58362	468.00986	723.12195	-116.36770	589.37683	417.01450	-261.01749	111.56802	712.75812	-89.36796	172.42514	461.33893	
470	4.690	-263.53241	1443.18127	334.67194	-264.73218	1703.00122	500.93591	-369.47910	1570.10266	465.90768	-161.47318	1548.89294	372.01733	-324.70197	1470.21643	662.24536	-81.35182	1467.13208	443.33612	-237.51140	1344.93066	510.21301	-121.08839	1469.22192	626.31689	-377.45334	1201.06689	785.54932	36.99743	1159.93945	381.13770	-496.27161	1253.95947	703.49207	-44.35120	1078.01514	201.18951	-274.81952	1066.38000	525.55219	-175.46379	1053.91809	446.31699	-73.11281	982.05457	700.29224	-274.23694	468.01016	721.22565	-120.39335	590.20703	413.86853	-262.57596	111.59129	710.81665	-106.55045	166.43372	449.32547	
471	4.700	-266.24207	1443.21289	329.56400	-267.42230	1702.57141	496.81372	-372.52502	1570.17737	461.17294	-164.34039	1549.43494	360.11880	-329.33133	1469.73755	657.82227	-84.92808	1466.16772	439.84433	-241.89699	1344.41638	506.93152	-125.56341	1468.84937	623.58569	-382.94119	1200.53845	780.09772	33.62228	1159.47974	378.85941	-502.36502	1253.71472	698.17139	-46.79173	1074.43738	198.86391	-280.10388	1066.33655	521.43793	-179.38295	1054.99512	441.27225	-77.63512	982.01257	696.87653	-276.36224	466.83444	720.33154	-123.16176	589.84680	411.83252	-262.16055	110.97898	711.85352	-122.42674	159.75258	436.30008	
472	4.710	-268.70749	1442.64282	326.65433	-270.73434	1702.54077	493.41486	-375.39664	1569.94604	456.40610	-167.21053	1549.56836	357.05008	-333.66785	1470.02136	653.79626	-87.86326	1465.70435	437.48920	-245.35364	1344.21985	502.86191	-129.62846	1468.32495	620.41223	-388.35309	1199.77747	774.82538	30.25901	1158.88269	376.63846	-507.74438	1253.52612	692.67554	-48.82840	1071.27454	196.19002	-284.36838	1065.08130	517.84137	-183.45992	1054.15295	439.22379	-81.78104	982.12012	694.37219	-279.13394	467.24496	716.62970	-124.96463	588.65210	409.82257	-262.45215	110.74171	711.56744	-139.01784	154.51756	422.77118	
473	4.720	-271.17508	1442.71606	322.79852	-274.79736	1702.16406	489.59048	-378.97800	1570.03418	452.45303	-169.56398	1548.63940	360.74243	-337.93069	1469.68225	649.46411	-91.92455	1465.26306	434.88382	-249.40076	1343.64063	499.48041	-133.82190	1467.75232	617.40857	-394.09540	1199.56934	769.56512	26.73919	1158.35071	374.13971	-512.69202	1252.94165	687.01660	-51.05666	1068.12195	194.13162	-287.61703	1065.09241	516.23773	-187.65269	1054.45593	434.21539	-86.38956	980.98224	690.77344	-281.52777	466.94363	714.34930	-125.03086	586.65552	407.73322	-261.94101	110.23998	711.54181	-154.79196	150.25870	408.44348	
474	4.730	-273.55084	1442.36499	319.29486	-277.58426	1701.81360	486.18192	-380.79208	1569.18579	447.85217	-172.72139	1549.23364	349.46146	-342.13837	1469.54871	645.07251	-95.61610	1464.29968	431.07211	-253.03343	1342.90198	495.43820	-138.35664	1467.40540	614.32697	-398.99020	1198.48657	764.02716	23.03691	1157.05786	371.80038	-517.66394	1252.33875	681.45209	-53.36367	1064.96948	191.78880	-291.93292	1065.13770	510.48056	-191.92554	1053.70349	431.42825	-90.64222	980.51550	687.72314	-283.75134	465.55972	710.73553	-124.59113	583.53125	406.78970	-262.03812	109.91235	711.54309	-169.31691	147.98961	394.33722	
475	4.740	-275.86298	1442.30945	314.11649	-281.31616	1701.58215	482.33041	-385.38751	1569.17163	443.36047	-174.95541	1548.89844	347.13525	-347.02786	1469.66724	641.18829	-98.88967	1463.44324	429.30011	-257.11667	1342.14160	492.21085	-142.10594	1466.79480	610.80859	-404.10175	1197.75317	758.76556	19.70152	1156.63379	369.24728	-522.31006	1251.92224	675.75385	-55.86165	1061.61804	188.54230	-296.88513	1065.70691	506.72147	-196.04474	1053.15283	428.63895	-94.08768	980.50928	683.64032	-287.13934	465.86072	708.18103	-123.01153	579.76123	405.00522	-262.12338	109.72657	711.52600	-184.37656	146.00175	378.95187	
476	4.750	-278.20102	1441.99731	309.88394	-283.93851	1700.62939	478.49384	-387.89026	1568.58704	438.90479	-177.34163	1547.78687	350.75208	-351.22525	1469.18591	637.20502	-102.54989	1462.65649	426.21509	-260.72812	1341.80737	488.21024	-145.90466	1466.15588	607.42603	-409.59491	1197.02173	753.69818	15.99336	1155.14587	366.22931	-527.14563	1251.39172	670.19788	-57.87466	1058.98230	185.10983	-301.34964	1064.87231	503.63882	-200.44168	1052.32263	424.89166	-99.18246	980.02466	680.59644	-289.72037	464.46268	704.61188	-121.10343	576.05005	402.72125	-261.79849	108.86616	711.65771	-197.73517	145.68898	364.50385	
477	4.760	-280.31546	1441.74512	306.11230	-287.92142	1700.28589	474.48303	-390.77652	1568.14185	434.36691	-180.20898	1548.36462	340.07977	-355.05893	1469.03650	632.90338	-105.92136	1461.76733	421.90552	-264.71613	1341.12244	484.71802	-150.17104	1465.65906	604.07794	-414.09778	1196.20227	748.17297	12.14286	1154.50476	362.81235	-531.22931	1250.67969	664.38428	-59.73555	1056.34192	182.28613	-305.73654	1064.34546	499.17548	-205.00560	1050.86365	421.69537	-103.58073	979.56696	677.07367	-293.51276	464.65546	701.65826	-120.37470	571.28809	400.86600	-261.70053	108.31031	711.54584	-211.21162	148.07933	350.00711	
478	4.770	-282.33487	1441.45972	302.09872	-290.92468	1699.59985	470.94659	-393.99023	1567.10486	429.53937	-181.95778	1547.20911	342.29611	-359.05676	1468.47400	628.82446	-109.35345	1460.60815	419.30725	-268.70267	1340.43677	480.51813	-153.79466	1464.95605	600.53271	-418.42981	1195.00598	742.86267	8.90073	1153.13623	359.64316	-536.07471	1250.12329	659.07233	-61.62836	1053.53845	178.09705	-310.00879	1063.35950	496.79517	-209.39972	1050.12036	417.42200	-107.38861	978.30005	673.63440	-295.76413	463.04099	698.01044	-123.04250	568.82385	398.95978	-261.41089	107.86829	711.66010	-224.62535	150.80183	337.64777	
479	4.780	-284.30212	1441.01733	297.55545	-294.83786	1698.55493	466.89026	-396.83551	1566.17896	424.90771	-184.91823	1547.96948	333.58630	-362.18372	1468.09448	624.77539	-112.84778	1460.01672	415.30029	-272.26578	1340.12964	476.94714	-157.37946	1463.94434	596.89917	-423.49127	1194.53064	737.75360	6.98888	1152.25977	355.66312	-540.76678	1250.09668	653.34930	-64.01978	1050.40710	174.45079	-314.13339	1062.29504	493.06354	-213.84030	1049.63184	414.28784	-110.53192	978.20386	669.91895	-299.04480	462.75018	695.08075	-126.72876	567.28302	398.03766	-260.97083	107.05754	711.62958	-235.96301	154.79044	323.76871	
480	4.790	-286.26340	1439.88721	294.20782	-298.38977	1697.95166	463.33032	-399.89551	1565.39368	420.16129	-187.12762	1546.38806	337.00720	-366.04663	1467.54541	620.60400	-116.31700	1458.80847	412.40610	-276.09445	1339.24426	472.93250	-161.54085	1463.64709	593.35492	-428.15125	1193.91992	732.48395	2.69737	1151.46790	352.15906	-544.07428	1248.77234	647.44318	-65.66220	1047.94702	170.08357	-318.83133	1061.66956	489.99820	-218.46936	1048.12158	410.46722	-115.27435	977.35492	665.88074	-302.09235	462.10358	690.75543	-131.54489	567.38544	396.17404	-260.65378	106.80692	711.38135	-246.84407	159.91370	311.48688	
481	4.800	-288.04694	1439.41223	289.82489	-301.53937	1697.08997	459.04880	-402.73755	1564.04578	415.67447	-190.00243	1546.33972	324.49677	-370.26096	1467.17700	616.55847	-120.05148	1458.32556	408.25311	-279.45126	1338.53357	468.86868	-163.93033	1462.27100	589.32690	-431.90952	1192.64624	727.04034	-0.23764	1150.49756	347.79120	-548.40625	1248.23767	641.95605	-68.28133	1044.82031	166.61124	-323.14316	1061.35107	485.00336	-223.16315	1046.97119	406.28891	-120.10562	975.97040	662.26416	-304.15668	461.53436	687.03992	-136.04858	567.77747	395.64932	-260.26462	106.39153	711.41296	-257.54626	163.85239	300.64294	
482	4.810	-289.90384	1438.83679	285.02338	-305.28928	1696.13818	455.13989	-405.17197	1562.87134	410.57419	-192.08746	1545.55493	330.82944	-373.64380	1466.93164	612.52057	-122.85729	1457.11365	404.99512	-283.41312	1337.71436	465.31946	-168.51297	1461.73877	586.03027	-436.67380	1191.99719	722.04144	-4.01646	1148.82239	344.29764	-552.49030	1247.77087	636.31763	-69.90666	1043.25488	162.84373	-327.50650	1060.47644	482.55545	-227.37543	1046.44556	402.85324	-124.28640	975.01868	657.53619	-307.29608	460.74472	682.87207	-140.42722	567.07275	395.90668	-259.84903	106.00760	711.00128	-266.62289	168.74522	290.38232	
483	4.820	-291.38361	1437.94421	280.48337	-308.55405	1695.43591	451.27277	-408.36368	1561.87244	406.00647	-193.92311	1544.88550	327.89731	-377.36816	1466.59277	608.28760	-126.60442	1455.86633	401.10297	-286.80304	1337.03674	461.07434	-171.60519	1460.77002	582.07422	-441.10767	1191.22058	716.97864	-6.97140	1148.18762	339.38776	-556.30609	1247.05859	630.87811	-72.07614	1039.64636	157.68245	-331.95840	1059.84119	477.10184	-231.80090	1046.15088	397.73685	-128.59366	973.54169	653.20270	-310.01849	460.36755	678.84039	-144.61626	566.96094	395.97195	-259.46271	105.51744	710.63123	-275.64673	172.51152	282.27454	
484	4.830	-292.86276	1437.70007	276.39105	-311.61990	1694.15540	447.20062	-410.92542	1560.63538	401.14386	-196.16782	1544.58948	323.58405	-380.27780	1465.77222	604.28632	-129.06033	1454.62573	396.99457	-290.60867	1336.20129	456.86807	-175.31070	1459.74402	578.15186	-445.10986	1189.97522	711.84857	-10.59782	1146.95581	334.96237	-560.14441	1245.68042	625.38910	-74.59968	1036.70386	154.05890	-335.95135	1059.16101	474.69281	-235.98756	1044.79419	395.36655	-133.15688	972.41095	649.57947	-312.77472	459.30734	675.45624	-148.42932	566.22791	395.88147	-259.54672	105.52199	710.44757	-283.62988	176.80423	272.46625	
485	4.840	-294.53906	1436.57849	272.38785	-315.64154	1693.53442	443.44818	-413.56778	1559.62061	396.73029	-198.68425	1544.14624	320.47372	-383.77203	1465.44141	599.86908	-132.61905	1453.41187	393.62732	-294.04794	1335.81470	452.86166	-178.04837	1458.45337	574.21832	-449.91763	1189.53235	707.14142	-13.51184	1146.50391	330.99796	-564.15759	1245.55261	620.09106	-75.93793	1034.96594	148.81844	-340.41769	1058.35095	469.92462	-240.22040	1044.46387	390.10583	-137.22891	971.20221	645.67792	-315.70370	459.15976	671.42670	-152.44376	564.68622	395.69589	-259.37756	105.35415	709.98175	-291.81598	179.81911	265.07990	
